<svg width="9" height="15" viewBox="0 0 9 15" fill="none" xmlns="http://www.w3.org/2000/svg">
<path d="M4.95168 13.362V14.4218C4.95168 14.7403 4.69384 15 4.37344 15C4.04925 15.0152 3.77435 14.7669 3.75918 14.4427C3.75918 14.437 3.75918 14.4294 3.75918 14.4237V13.3829C2.44346 13.3412 1.18651 12.8331 0.208249 11.9534C0.0736434 11.8131 -0.000294978 11.6311 -0.000294978 11.4396C-0.00598254 11.0017 0.329584 10.6358 0.767526 10.6055C0.940049 10.6092 1.10688 10.668 1.24149 10.7761C1.95623 11.3771 2.82642 11.76 3.7516 11.8833V8.09724C1.99794 7.62327 0.170332 7.02608 0.170332 4.87807C0.170332 3.12631 1.61876 1.81058 3.74971 1.65891V0.578277C3.7535 0.254086 4.02081 -0.00375042 4.345 4.12888e-05C4.35069 4.12888e-05 4.35827 4.12888e-05 4.36396 4.12888e-05C4.68247 4.12888e-05 4.9422 0.257877 4.9422 0.578277V1.69494C6.03421 1.7575 7.07503 2.17648 7.90542 2.88743C8.04002 3.02393 8.11396 3.20783 8.11396 3.39931C8.11017 3.84483 7.74617 4.20505 7.29874 4.20505C7.16035 4.20315 7.02574 4.16144 6.91009 4.08182C6.33565 3.64198 5.66262 3.35002 4.94978 3.23058V6.56349C6.70155 7.03745 8.57655 7.71806 8.57655 9.95328C8.57845 11.6197 7.53762 13.1914 4.95168 13.362ZM3.75918 3.16422C2.65201 3.24954 1.9221 3.88465 1.9221 4.76432C1.9221 5.644 2.72784 5.95682 3.75918 6.26015V3.16422ZM4.95168 8.45555V11.9022C6.35271 11.7316 6.84564 10.8804 6.84564 10.1599C6.85511 9.1665 6.02094 8.75889 4.95168 8.45555Z" fill="#FF715B"/>
</svg>
